<svg xmlns="http://www.w3.org/2000/svg" viewBox="0 0 495.86 123.78"><defs><style>.cls-1,.cls-2{fill:#6d6e71;}.cls-1{fill-rule:evenodd;}</style></defs><title>eshow-powered-grey</title><g id="Layer_1" data-name="Layer 1"><path class="cls-1" d="M63.38,111.06h54.51c0-14.18.5-31-10.49-42-7.11-6.77-18.62-10.5-35.21-10.5-16.93,0-29.46,3.72-37.92,11.17-9.7,8.85-12.19,21.66-12.19,34.2,0,10.46,2.38,20.19,11.17,27.43a37.92,37.92,0,0,0,24.46,8.79H87.3c8.15,0,16.5-7.57,18.74-9.81a47.74,47.74,0,0,0,8.13-10.83h-44c-4.76,0-6.77-4.36-6.77-8.47m19.3-24a9.19,9.19,0,0,1,2.71,5.42h-23a12.82,12.82,0,0,1,3-5.08C69.07,83.1,78.76,83.1,82.68,87" transform="translate(-22.07 -17.29)"/><path class="cls-1" d="M197,63v.23c-6.18-1-12.07-1.95-17.95-2.6-6.43-.34-12.53-.68-18.29-.68-16.59,0-28.78,2.37-36.23,7.11a20.28,20.28,0,0,0-6.43,5.42c6,11.31,6.24,23.65,6.24,35.89a39.86,39.86,0,0,0,13.4,3.73c6.17.69,12.6.6,18.62,1,2.23.16,4.74.13,4.74,3,0,1.7-1.49,3.38-4.4,3.38H121c-4.41,8.82-10.28,16.4-19.7,20.64h54.06c15.24,0,26.75-2,34.2-7.1a24.2,24.2,0,0,0,7.45-6.85Zm0,23V98.82a13.78,13.78,0,0,0-3-2.65c-4.74-3.38-12.53-5.42-23.37-5.42h-6.77c-7.45,0-11.17-1.35-11.17-3.39q0-2,3-3a73.59,73.59,0,0,1,11.85-.68c3.39,0,7.79.34,12.53.68,4.26.33,10.11,1,16.93,1.63" transform="translate(-22.07 -17.29)"/><polygon class="cls-2" points="173.65 121.77 173.65 45.86 212.51 45.86 212.51 72.13 231.26 72.13 231.26 45.86 270.02 45.86 270.02 121.77 231.26 121.77 231.26 97.95 212.51 97.95 212.51 121.77 173.65 121.77"/><path class="cls-2" d="M288.32,101.14q0-19.81,13.3-29.9T341,61.14q26.12,0,39.43,10.09t13.3,29.9q0,19.77-13.3,29.85T341,141.08q-26.13,0-39.43-10.09t-13.3-29.85m52.26-14c-9.27,0-16.79,6.11-16.79,13.65s7.52,13.65,16.79,13.65,16.79-6.11,16.79-13.65-7.52-13.65-16.79-13.65" transform="translate(-22.07 -17.29)"/><polygon class="cls-2" points="382.68 121.48 361.56 45.58 400.44 45.58 408.03 86.56 416.85 45.58 441.94 45.58 450.22 86.28 458.34 45.58 495.86 45.58 474.49 121.48 438.09 121.48 428.29 84.77 419.06 121.48 382.68 121.48"/><path class="cls-2" d="M512.09,133.44v-.8a1.9,1.9,0,0,0-.61-1.54,2.28,2.28,0,0,0-1-.39,2.48,2.48,0,0,0,1.19-.47,1.53,1.53,0,0,0,.49-1.25,1.71,1.71,0,0,0-.92-1.63,3.13,3.13,0,0,0-1.35-.36H506.6v6.84h1.79v-2.41h.79a2.25,2.25,0,0,1,.61.12.76.76,0,0,1,.49.51,5.83,5.83,0,0,1,.13.81,4.41,4.41,0,0,0,.1,1h1.71l-.06-.18C512.12,133.58,512.12,133.51,512.09,133.44Zm-2-3.5a1.67,1.67,0,0,1-1,.26h-.68v-2h.44a3.32,3.32,0,0,1,1.06.13.81.81,0,0,1,.53.79A1,1,0,0,1,510.07,129.94Z" transform="translate(-22.07 -17.29)"/><path class="cls-2" d="M509.3,124.24a5.94,5.94,0,0,0-4.24,1.68,5.78,5.78,0,0,0-1.93,4.48,6.18,6.18,0,1,0,6.17-6.16Zm3.6,9.8a4.87,4.87,0,0,1-3.6,1.51,5.1,5.1,0,0,1-5.1-5.15,4.83,4.83,0,0,1,1.48-3.55,5,5,0,0,1,7.22,0,4.85,4.85,0,0,1,1.48,3.55A5,5,0,0,1,512.9,134Z" transform="translate(-22.07 -17.29)"/></g><g id="Layer_2_copy" data-name="Layer 2 copy"><path class="cls-2" d="M114,18q4.32,0,6.54,2.22a8.41,8.41,0,0,1,2.22,6.22,8.48,8.48,0,0,1-2.22,6.24q-2.22,2.24-6.54,2.2H105.3V46.53h-3.8V18Zm-1.28,13.68q3.24,0,4.74-1.32a5,5,0,0,0,1.5-3.92,5,5,0,0,0-1.5-3.9,7,7,0,0,0-4.74-1.34H105.3V31.65Z" transform="translate(-22.07 -17.29)"/><path class="cls-2" d="M135.68,26.63a14.15,14.15,0,0,1,2.58-4.78,12.59,12.59,0,0,1,4.28-3.32,14.94,14.94,0,0,1,11.92,0,12.61,12.61,0,0,1,4.28,3.32,14.17,14.17,0,0,1,2.58,4.78,18.8,18.8,0,0,1,0,11.24,14.18,14.18,0,0,1-2.58,4.78,12.39,12.39,0,0,1-4.28,3.3,15.17,15.17,0,0,1-11.92,0,12.38,12.38,0,0,1-4.28-3.3,14.16,14.16,0,0,1-2.58-4.78,18.8,18.8,0,0,1,0-11.24Zm3.5,9.88a11.56,11.56,0,0,0,1.76,3.78A9,9,0,0,0,144,43a10.34,10.34,0,0,0,9,0,9,9,0,0,0,3.08-2.7,11.57,11.57,0,0,0,1.76-3.78,16.48,16.48,0,0,0,0-8.52,11.57,11.57,0,0,0-1.76-3.78,9,9,0,0,0-3.08-2.7,10.34,10.34,0,0,0-9,0,9,9,0,0,0-3.08,2.7A11.56,11.56,0,0,0,139.18,28a16.48,16.48,0,0,0,0,8.52Z" transform="translate(-22.07 -17.29)"/><path class="cls-2" d="M197.66,46.53l-6.52-24h-.08l-6.6,24h-4L173.18,18h3.88l5.6,23.76h.08L189.14,18h4.12l6.32,23.76h.08L205.46,18h3.8l-7.64,28.56Z" transform="translate(-22.07 -17.29)"/><path class="cls-2" d="M241.58,18v3.2H225.66v9.08H240.5v3.2H225.66v9.88h16v3.2H221.86V18Z" transform="translate(-22.07 -17.29)"/><path class="cls-2" d="M268.74,18a9.4,9.4,0,0,1,6.38,2,6.88,6.88,0,0,1,2.3,5.48A8.67,8.67,0,0,1,276.24,30a6.08,6.08,0,0,1-3.78,2.68v.08a5.1,5.1,0,0,1,2,.8,4.42,4.42,0,0,1,1.24,1.34,6.11,6.11,0,0,1,.68,1.74,18.43,18.43,0,0,1,.34,2q.08,1,.12,2.12a18,18,0,0,0,.2,2.12,12.93,12.93,0,0,0,.46,2,4.88,4.88,0,0,0,.9,1.66h-4.24a2.37,2.37,0,0,1-.54-1.2,12.2,12.2,0,0,1-.18-1.7q0-.94-.08-2a14.1,14.1,0,0,0-.24-2.12q-.16-1-.4-2a4.65,4.65,0,0,0-.76-1.64,3.76,3.76,0,0,0-1.36-1.12,5.05,5.05,0,0,0-2.24-.42H259.1v12.2h-3.8V18Zm.8,13a5.51,5.51,0,0,0,2.1-.78,4.26,4.26,0,0,0,1.44-1.56,5.23,5.23,0,0,0,.54-2.54,5.12,5.12,0,0,0-1.2-3.52,4.94,4.94,0,0,0-3.88-1.36H259.1v10H267A15.26,15.26,0,0,0,269.54,30.94Z" transform="translate(-22.07 -17.29)"/><path class="cls-2" d="M311.42,18v3.2H295.5v9.08h14.84v3.2H295.5v9.88h16v3.2H291.7V18Z" transform="translate(-22.07 -17.29)"/><path class="cls-2" d="M334.94,18q6.6,0,10.16,3.36t3.56,10.24a23.12,23.12,0,0,1-.8,6.38,11.91,11.91,0,0,1-2.48,4.68,10.73,10.73,0,0,1-4.28,2.9,17.14,17.14,0,0,1-6.16,1h-9.8V18Zm.32,25.36a16,16,0,0,0,1.6-.1,8.92,8.92,0,0,0,2-.48,9.32,9.32,0,0,0,2.14-1.1,7.21,7.21,0,0,0,1.9-2,10.92,10.92,0,0,0,1.38-3.1,16.28,16.28,0,0,0,.54-4.5,19.13,19.13,0,0,0-.5-4.58,8.8,8.8,0,0,0-1.64-3.44,7.21,7.21,0,0,0-2.94-2.16,11.71,11.71,0,0,0-4.44-.74h-6.4V43.33Z" transform="translate(-22.07 -17.29)"/><path class="cls-2" d="M392.78,18l2,0q1.06,0,2.1.12a16.07,16.07,0,0,1,1.94.3,4.91,4.91,0,0,1,1.54.6,7.44,7.44,0,0,1,2.38,2.32,6.45,6.45,0,0,1,1,3.64,7,7,0,0,1-1.1,3.94,6.48,6.48,0,0,1-3.14,2.46v.08a6.58,6.58,0,0,1,4,2.4,7.18,7.18,0,0,1,1.4,4.48,8.53,8.53,0,0,1-.56,3A7.62,7.62,0,0,1,402.68,44,8.29,8.29,0,0,1,400,45.83a9.36,9.36,0,0,1-3.74.7h-13.8V18Zm1,12.28q3.24,0,4.66-1.14a4.12,4.12,0,0,0,1.42-3.42,5,5,0,0,0-.48-2.4,3.41,3.41,0,0,0-1.32-1.36,5.19,5.19,0,0,0-1.94-.62,18.49,18.49,0,0,0-2.34-.14h-7.6v9.08Zm1.92,13.08A5.46,5.46,0,0,0,399.68,42a5,5,0,0,0,1.42-3.76,4.68,4.68,0,0,0-.52-2.32,4,4,0,0,0-1.38-1.46,5.81,5.81,0,0,0-2-.76,12.1,12.1,0,0,0-2.32-.22h-8.68v9.88Z" transform="translate(-22.07 -17.29)"/><path class="cls-2" d="M430.62,46.53h-3.8V34.85L415.78,18h4.52l8.56,13.6L437.22,18h4.32L430.62,34.85Z" transform="translate(-22.07 -17.29)"/></g></svg>